PathFileType	4	(X/Y/Z)	C:\Users\dell\Documents\OpenSim\4.1\20210318\TRC_File\LX_20210318_static_0001.trc
DataRate	CameraRate	NumFrames	NumMarkers	Units	OrigDataRate	OrigDataStartFrame	OrigNumFrames
100.000000	100.000000	4	38	mm	100.000000	75	300
Frame#	Time	Sternum			R.Acromium			L.Acromium			R.Arm			L.Arm			R.Hand			L.Hand			R.ASIS			L.ASIS			V.Sacral			R.Thigh.Upper			R.Thigh.Front			R.Thigh.Rear			R.Knee.Lat			R.Knee.Med			R.Shank.Upper			R.Shank.Front			R.Shank.Rear			R.Ankle.Lat			R.Ankle.Med			R.Heel			R.Toe.Lat			R.Toe.Med			R.Toe.Tip			L.Thigh.Upper			L.Thigh.Front			L.Thigh.Rear			L.Knee.Lat			L.Knee.Med			L.Shank.Upper			L.Shank.Front			L.Shank.Rear			L.Ankle.Lat			L.Ankle.Med			L.Heel			L.Toe.Lat			L.Toe.Med			L.Toe.Tip			
		X1	Y1	Z1	X2	Y2	Z2	X3	Y3	Z3	X4	Y4	Z4	X5	Y5	Z5	X6	Y6	Z6	X7	Y7	Z7	X8	Y8	Z8	X9	Y9	Z9	X10	Y10	Z10	X11	Y11	Z11	X12	Y12	Z12	X13	Y13	Z13	X14	Y14	Z14	X15	Y15	Z15	X16	Y16	Z16	X17	Y17	Z17	X18	Y18	Z18	X19	Y19	Z19	X20	Y20	Z20	X21	Y21	Z21	X22	Y22	Z22	X23	Y23	Z23	X24	Y24	Z24	X25	Y25	Z25	X26	Y26	Z26	X27	Y27	Z27	X28	Y28	Z28	X29	Y29	Z29	X30	Y30	Z30	X31	Y31	Z31	X32	Y32	Z32	X33	Y33	Z33	X34	Y34	Z34	X35	Y35	Z35	X36	Y36	Z36	X37	Y37	Z37	X38	Y38	Z38	

76	0.75	-102.6606903076172	1295.0185546875	-6.916937351226807	-229.1054534912109	1449.578735351563	123.5342102050781	-227.9958953857422	1459.779663085938	-138.1069946289063	-302.2970581054688	1423.155395507813	428.927001953125	-282.45263671875	1429.34814453125	-450.162841796875	-295.8477478027344	1418.787841796875	680.0729370117188	-248.8888702392578	1412.223754882813	-682.8131713867188	-132.4616394042969	972.463623046875	129.0610198974609	-117.2606811523438	960.7579345703125	-102.632926940918	-312.3862609863281	964.3577880859375	-6.368691921234131	-215.6693267822266	645.9814453125	168.0273742675781	-153.5007934570313	616.6820068359375	98.40874481201172	-222.6546783447266	554.1207885742188	165.8977508544922	-247.0801849365234	465.1139526367188	168.7161102294922	-250.7391815185547	461.6353454589844	39.19428634643555	-254.9857635498047	408.2804870605469	168.6394805908203	-206.2675323486328	357.8622741699219	102.8362731933594	-272.5987243652344	289.5366821289063	174.7967529296875	-292.8916015625	55.93891525268555	154.7333374023438	-276.8800354003906	81.78475952148438	70.13497924804688	-331.0887756347656	25.43583679199219	97.53459930419922	-175.2242889404297	21.11681938171387	199.2752380371094	-122.649658203125	20.25492668151855	108.4291152954102	-82.91207122802734	25.02264785766602	142.5514984130859	-189.8259429931641	667.3880004882813	-164.0782318115234	-146.8651275634766	627.3599853515625	-95.70954132080078	-196.0625305175781	570.0519409179688	-161.6955871582031	-217.6543121337891	463.3447265625	-164.1259613037109	-273.237548828125	457.8617248535156	-44.67025375366211	-225.0391235351563	402.9162292480469	-164.8628692626953	-203.8621215820313	357.2669372558594	-98.58409881591797	-241.9771575927734	297.5814208984375	-168.0698394775391	-288.3817749023438	53.69238662719727	-150.9362335205078	-273.5733947753906	75.93719482421875	-62.53912734985352	-339.1797180175781	24.79868698120117	-94.10562133789063	-183.6007080078125	20.77934455871582	-188.5527038574219	-131.5567016601563	22.60130882263184	-102.7073364257813	-92.23556518554688	24.30905342102051	-140.1980438232422	
77	0.76	-102.7020721435547	1295.02685546875	-6.929913520812988	-229.1653137207031	1449.564697265625	123.5228271484375	-228.0405731201172	1459.784057617188	-138.1220245361328	-302.3116149902344	1423.093872070313	428.9259643554688	-282.4569702148438	1429.369750976563	-450.1821899414063	-295.7756652832031	1418.694946289063	680.0676879882813	-248.8307800292969	1412.242065429688	-682.83984375	-132.5076446533203	972.4581298828125	129.0137481689453	-117.2929458618164	960.767578125	-102.6833114624023	-312.4240417480469	964.3656005859375	-6.420709609985352	-215.7021331787109	645.985107421875	167.9893188476563	-153.5285034179688	616.6842651367188	98.37153625488281	-222.6478424072266	554.1471557617188	165.8539581298828	-247.0904235839844	465.1171875	168.6779632568359	-250.7691802978516	461.6322021484375	39.15824890136719	-254.9978485107422	408.2897338867188	168.6055603027344	-206.2713775634766	357.893798828125	102.8134994506836	-272.611572265625	289.5422973632813	174.7803497314453	-292.8870239257813	55.93125915527344	154.7163848876953	-276.8596496582031	81.7684326171875	70.13390350341797	-331.0941162109375	25.45020484924316	97.52569580078125	-175.2227478027344	21.1156177520752	199.2769317626953	-122.6394195556641	20.26440811157227	108.4323348999023	-82.91098785400391	25.01975631713867	142.5402984619141	-189.8451995849609	667.3890991210938	-164.1027069091797	-146.8903045654297	627.3727416992188	-95.73941040039063	-196.1245727539063	570.0493774414063	-161.6908874511719	-217.6695404052734	463.3516235351563	-164.1366882324219	-273.2680358886719	457.8518676757813	-44.71573257446289	-225.0592346191406	402.9179382324219	-164.8991394042969	-203.88232421875	357.275146484375	-98.60262298583984	-241.9759826660156	297.5709838867188	-168.09033203125	-288.3801879882813	53.68674087524414	-150.9415435791016	-273.5917663574219	75.94773864746094	-62.54153442382813	-339.1813354492188	24.80828666687012	-94.09426879882813	-183.6045227050781	20.78242111206055	-188.5532836914063	-131.55224609375	22.61393737792969	-102.7029037475586	-92.24507141113281	24.31854057312012	-140.1950836181641	
78	0.77	-102.7505035400391	1295.02978515625	-6.943645000457764	-229.2364501953125	1449.564331054688	123.5189056396484	-228.0910491943359	1459.789428710938	-138.1390075683594	-302.3256530761719	1423.035522460938	428.9298095703125	-282.4497985839844	1429.38232421875	-450.2216186523438	-295.7223205566406	1418.625610351563	680.0883178710938	-248.7778625488281	1412.253173828125	-682.869873046875	-132.5490112304688	972.4561767578125	128.9699401855469	-117.3235244750977	960.7733764648438	-102.7155838012695	-312.4517822265625	964.3585205078125	-6.461911678314209	-215.7490234375	645.9962768554688	167.9330291748047	-153.5449066162109	616.6940307617188	98.34069061279297	-222.6775817871094	554.1571655273438	165.8242340087891	-247.1092681884766	465.1307983398438	168.6589508056641	-250.7754669189453	461.6163024902344	39.13075637817383	-255.0204925537109	408.2815856933594	168.5819854736328	-206.2836456298828	357.8966979980469	102.7876510620117	-272.6185913085938	289.5603942871094	174.7576751708984	-292.8908996582031	55.94898986816406	154.7164306640625	-276.8683166503906	81.78093719482422	70.1298828125	-331.0800476074219	25.43212699890137	97.51998901367188	-175.2230529785156	21.11502265930176	199.2623291015625	-122.6340179443359	20.27179718017578	108.4305419921875	-82.90778350830078	25.02207946777344	142.5387268066406	-189.8658752441406	667.3987426757813	-164.1382751464844	-146.9246978759766	627.3876342773438	-95.78318786621094	-196.1588287353516	570.0410766601563	-161.6839141845703	-217.6901092529297	463.3695983886719	-164.1522674560547	-273.2843933105469	457.8614807128906	-44.74184417724609	-225.0827789306641	402.9144592285156	-164.9073333740234	-203.9123687744141	357.2804565429688	-98.62548065185547	-242.0066223144531	297.5786437988281	-168.1138153076172	-288.3751220703125	53.68537521362305	-150.9381713867188	-273.5997314453125	75.94483947753906	-62.54951095581055	-339.1804809570313	24.79415512084961	-94.11231231689453	-183.6073760986328	20.79197120666504	-188.5614776611328	-131.5550994873047	22.61731338500977	-102.7091369628906	-92.24135589599609	24.32107353210449	-140.2018432617188	
79	0.78	-102.8023910522461	1295.041137695313	-6.968453884124756	-229.3015594482422	1449.539794921875	123.5083236694336	-228.1578369140625	1459.80029296875	-138.1581420898438	-302.3492126464844	1422.979248046875	428.9336547851563	-282.4431457519531	1429.372436523438	-450.2571105957031	-295.6823120117188	1418.553833007813	680.0983276367188	-248.7555694580078	1412.224243164063	-682.8931274414063	-132.5912933349609	972.4485473632813	128.9255218505859	-117.3526077270508	960.7890625	-102.7531509399414	-312.5050964355469	964.3827514648438	-6.514309406280518	-215.7910766601563	646.0154418945313	167.8973693847656	-153.5913543701172	616.6998901367188	98.31011199951172	-222.7178955078125	554.16845703125	165.7884368896484	-247.1509094238281	465.142578125	168.6260375976563	-250.8016967773438	461.6221618652344	39.1026725769043	-255.0366821289063	408.3062133789063	168.5581359863281	-206.31396484375	357.9047546386719	102.7748260498047	-272.6449279785156	289.5476989746094	174.7389373779297	-292.8896484375	55.95072174072266	154.7240295410156	-276.8646240234375	81.78113555908203	70.13067626953125	-331.0885314941406	25.44985008239746	97.51332092285156	-175.2294769287109	21.12508010864258	199.2738189697266	-122.6455078125	20.27269172668457	108.4253540039063	-82.91716003417969	25.01672744750977	142.5366973876953	-189.8974914550781	667.3977661132813	-164.1769104003906	-146.9566955566406	627.375732421875	-95.82279968261719	-196.1712951660156	570.040771484375	-161.7295379638672	-217.7235565185547	463.3638000488281	-164.1729583740234	-273.3110656738281	457.8565673828125	-44.77634048461914	-225.1013336181641	402.91162109375	-164.9373931884766	-203.9326934814453	357.2882690429688	-98.64609527587891	-242.0100555419922	297.5827331542969	-168.1298217773438	-288.3936157226563	53.6944465637207	-150.952392578125	-273.5928955078125	75.9512939453125	-62.55545425415039	-339.1891479492188	24.7946605682373	-94.12415313720703	-183.6048431396484	20.77785873413086	-188.5599365234375	-131.5612640380859	22.6131420135498	-102.7181243896484	-92.24158477783203	24.31829071044922	-140.2083282470703	
